<svg width="6400" height="6400" viewBox="0 0 64 64" fill="none" xmlns="http://www.w3.org/2000/svg">
<path d="M20.6762 12.4639C18.1054 11.4099 12.2373 11.6233 7.36706 18.8615C4.92789 22.4867 6.74045 27.2841 10.8333 28.8139C15.6912 30.6297 21.5567 31.8906 25.8073 30.2148C34.1454 26.9276 23.8831 13.7788 20.6762 12.4639Z" stroke="#bd9737" stroke-width="2" stroke-linecap="round" stroke-linejoin="round"/>
<path d="M32.3432 36.4639C29.6869 35.4167 23.6457 35.6206 18.6003 42.7218C16.0105 46.3668 17.8844 51.2949 22.0918 52.8086C27.1469 54.6272 33.2546 55.8922 37.6796 54.2148C46.3512 50.9276 35.6785 37.7788 32.3432 36.4639Z" stroke="#bd9737" stroke-width="2" stroke-linecap="round" stroke-linejoin="round"/>
<path d="M47.2915 36.6784C50.2334 36.8223 52.9577 27.9319 54.0983 16.4589C54.5369 12.0471 51.1693 8.61309 47.3148 10.8037C42.4389 13.5748 37.3826 18.6177 36.2973 23.1522C34.1431 32.1523 43.7177 36.5037 47.2915 36.6784Z" stroke="#bd9737" stroke-width="2" stroke-linecap="round" stroke-linejoin="round"/>
</svg>
