<svg width="64" height="64" viewBox="0 0 64 64" fill="none" xmlns="http://www.w3.org/2000/svg">
<mask id="path-1-inside-1_910_2673" fill="white">
<path d="M33 58C36.5457 58 40.0567 57.3016 43.3325 55.9448C46.6082 54.5879 49.5847 52.5991 52.0919 50.0919C54.5991 47.5847 56.5879 44.6082 57.9447 41.3325C59.3016 38.0567 60 34.5457 60 31C60 27.4543 59.3016 23.9433 57.9447 20.6675C56.5879 17.3918 54.5991 14.4153 52.0919 11.9081C49.5847 9.40093 46.6082 7.41213 43.3325 6.05525C40.0567 4.69837 36.5457 4 33 4L33 31L33 58Z"/>
</mask>
<path d="M33 58C36.5457 58 40.0567 57.3016 43.3325 55.9448C46.6082 54.5879 49.5847 52.5991 52.0919 50.0919C54.5991 47.5847 56.5879 44.6082 57.9447 41.3325C59.3016 38.0567 60 34.5457 60 31C60 27.4543 59.3016 23.9433 57.9447 20.6675C56.5879 17.3918 54.5991 14.4153 52.0919 11.9081C49.5847 9.40093 46.6082 7.41213 43.3325 6.05525C40.0567 4.69837 36.5457 4 33 4L33 31L33 58Z" stroke="#071E2D" stroke-width="4" stroke-linejoin="round" mask="url(#path-1-inside-1_910_2673)"/>
<path d="M34 5C38.0444 12.7069 54.2222 21.6982 60 7.56896" stroke="#071E2D" stroke-width="2" stroke-linecap="round" stroke-linejoin="round"/>
</svg>
