<svg width="64" height="64" viewBox="0 0 64 64" fill="none" xmlns="http://www.w3.org/2000/svg">
<path d="M42 2C42 4.38695 40.9464 6.67613 39.0711 8.36396C37.1957 10.0518 34.6522 11 32 11C29.3478 11 26.8043 10.0518 24.9289 8.36396C23.0536 6.67613 22 4.38695 22 2" stroke="#071E2D" stroke-width="2" stroke-linecap="round"/>
<path d="M23 61C23 58.0826 24.0536 55.2847 25.9289 53.2218C27.8043 51.1589 30.3478 50 33 50C35.6522 50 38.1957 51.1589 40.0711 53.2218C41.9464 55.2847 43 58.0826 43 61" stroke="#071E2D" stroke-width="2" stroke-linecap="round"/>
<path d="M59.1359 17.757C57.179 19.7139 54.5249 20.8133 51.7574 20.8133C48.9899 20.8133 46.3358 19.7139 44.3789 17.757C42.422 15.8001 41.3226 13.146 41.3226 10.3785C41.3226 7.61103 42.422 4.9569 44.3789 3" stroke="#071E2D" stroke-width="2" stroke-linecap="round"/>
<path d="M4.99982 45.3785C6.95673 43.4216 9.61085 42.3222 12.3783 42.3222C15.1458 42.3222 17.7999 43.4216 19.7568 45.3785C21.7137 47.3354 22.8131 49.9895 22.8131 52.757C22.8131 55.5245 21.7137 58.1786 19.7568 60.1355" stroke="#071E2D" stroke-width="2" stroke-linecap="round"/>
<path d="M60.6564 44.7337C58.6995 42.7767 56.0454 41.6774 53.2779 41.6774C50.5104 41.6774 47.8563 42.7767 45.8994 44.7336C43.9425 46.6906 42.8431 49.3447 42.8431 52.1122C42.8431 54.8796 43.9425 57.5338 45.8994 59.4907" stroke="#071E2D" stroke-width="2" stroke-linecap="round"/>
<path d="M3.95686 17.547C5.91376 19.5039 8.56788 20.6033 11.3354 20.6033C14.1028 20.6033 16.757 19.5039 18.7139 17.547C20.6708 15.5901 21.7701 12.936 21.7701 10.1685C21.7701 7.40101 20.6708 4.74688 18.7139 2.78998" stroke="#071E2D" stroke-width="2" stroke-linecap="round"/>
<path d="M62 42C59.0826 42 56.2847 40.8411 54.2218 38.7782C52.1589 36.7153 51 33.9174 51 31C51 28.0826 52.1589 25.2847 54.2218 23.2218C56.2847 21.1589 59.0826 20 62 20" stroke="#071E2D" stroke-width="2" stroke-linecap="round"/>
<path d="M4 20C6.91738 20 9.71527 21.1589 11.7782 23.2218C13.8411 25.2847 15 28.0826 15 31C15 33.9174 13.8411 36.7153 11.7782 38.7782C9.71527 40.8411 6.91738 42 4 42" stroke="#071E2D" stroke-width="2" stroke-linecap="round"/>
</svg>
