<svg width="6400" height="6400" viewBox="0 0 64 64" fill="none" xmlns="http://www.w3.org/2000/svg">
<path d="M4 32C4 28.5856 4.67251 25.2047 5.97913 22.0502C7.28575 18.8958 9.2009 16.0295 11.6152 13.6152C14.0295 11.2009 16.8958 9.28575 20.0502 7.97913C23.2047 6.67251 26.5856 6 30 6L30 32L30 58" stroke="#bd9737" stroke-width="2" stroke-linecap="round" stroke-linejoin="round"/>
<path d="M60 32C60 35.4144 59.3275 38.7953 58.0209 41.9498C56.7142 45.1042 54.7991 47.9705 52.3848 50.3848C49.9705 52.7991 47.1042 54.7142 43.9498 56.0209C40.7953 57.3275 37.4144 58 34 58L34 32L34 6" stroke="#bd9737" stroke-width="2" stroke-linecap="round" stroke-linejoin="round"/>
</svg>
