{
    "asset" : {
        "generator" : "Khronos glTF Blender I/O v3.4.49",
        "version" : "2.0"
    },
    "scene" : 0,
    "scenes" : [
        {
            "name" : "Scene",
            "nodes" : [
                0,
                1,
                2,
                3
            ]
        }
    ],
    "nodes" : [
        {
            "name" : "Empty.001",
            "rotation" : [
                0.5,
                0.5,
                -0.5,
                0.5
            ],
            "scale" : [
                0.26762375235557556,
                0.26762375235557556,
                0.26762375235557556
            ],
            "translation" : [
                -5.455560207366943,
                3.908839464187622,
                1.4193943738937378
            ]
        },
        {
            "mesh" : 0,
            "name" : "Plane.003",
            "scale" : [
                8.305867195129395,
                8.305867195129395,
                2.695178985595703
            ],
            "translation" : [
                -0.49483805894851685,
                1.4649176597595215,
                -4.572295188903809
            ]
        },
        {
            "mesh" : 1,
            "name" : "Plane.004",
            "scale" : [
                6.147477626800537,
                6.147477626800537,
                6.147477626800537
            ],
            "translation" : [
                0,
                0,
                1.6762669086456299
            ]
        },
        {
            "mesh" : 2,
            "name" : "Plane.006",
            "scale" : [
                6.147477626800537,
                6.147477626800537,
                6.147477626800537
            ],
            "translation" : [
                -6.508455276489258,
                -0.6302817463874817,
                -14.614679336547852
            ]
        }
    ],
    "meshes" : [
        {
            "name" : "Plane.003",
            "primitives" : [
                {
                    "attributes" : {
                        "POSITION" : 0,
                        "TEXCOORD_0" : 1,
                        "NORMAL" : 2
                    },
                    "indices" : 3
                }
            ]
        },
        {
            "name" : "Plane.005",
            "primitives" : [
                {
                    "attributes" : {
                        "POSITION" : 4,
                        "TEXCOORD_0" : 5,
                        "NORMAL" : 6
                    },
                    "indices" : 7
                }
            ]
        },
        {
            "name" : "Plane.007",
            "primitives" : [
                {
                    "attributes" : {
                        "POSITION" : 8,
                        "TEXCOORD_0" : 9,
                        "NORMAL" : 10
                    },
                    "indices" : 11
                }
            ]
        }
    ],
    "accessors" : [
        {
            "bufferView" : 0,
            "componentType" : 5126,
            "count" : 36,
            "max" : [
                1.0711673498153687,
                0.0694965347647667,
                1.435915470123291
            ],
            "min" : [
                -1.5970582962036133,
                -0.1311798095703125,
                -2.4638254642486572
            ],
            "type" : "VEC3"
        },
        {
            "bufferView" : 1,
            "componentType" : 5126,
            "count" : 36,
            "type" : "VEC2"
        },
        {
            "bufferView" : 2,
            "componentType" : 5126,
            "count" : 36,
            "type" : "VEC3"
        },
        {
            "bufferView" : 3,
            "componentType" : 5123,
            "count" : 150,
            "type" : "SCALAR"
        },
        {
            "bufferView" : 4,
            "componentType" : 5126,
            "count" : 201,
            "max" : [
                1.0035048723220825,
                0.5720706582069397,
                2.1279428005218506
            ],
            "min" : [
                -2.0490171909332275,
                -0.0584830641746521,
                -1.4201953411102295
            ],
            "type" : "VEC3"
        },
        {
            "bufferView" : 5,
            "componentType" : 5126,
            "count" : 201,
            "type" : "VEC2"
        },
        {
            "bufferView" : 6,
            "componentType" : 5126,
            "count" : 201,
            "type" : "VEC3"
        },
        {
            "bufferView" : 7,
            "componentType" : 5123,
            "count" : 924,
            "type" : "SCALAR"
        },
        {
            "bufferView" : 8,
            "componentType" : 5126,
            "count" : 72,
            "max" : [
                2.652582883834839,
                0.5646456480026245,
                0.9936090111732483
            ],
            "min" : [
                -1.016847848892212,
                0.057400450110435486,
                -2.234825849533081
            ],
            "type" : "VEC3"
        },
        {
            "bufferView" : 9,
            "componentType" : 5126,
            "count" : 72,
            "type" : "VEC2"
        },
        {
            "bufferView" : 10,
            "componentType" : 5126,
            "count" : 72,
            "type" : "VEC3"
        },
        {
            "bufferView" : 11,
            "componentType" : 5123,
            "count" : 336,
            "type" : "SCALAR"
        }
    ],
    "bufferViews" : [
        {
            "buffer" : 0,
            "byteLength" : 432,
            "byteOffset" : 0,
            "target" : 34962
        },
        {
            "buffer" : 0,
            "byteLength" : 288,
            "byteOffset" : 432,
            "target" : 34962
        },
        {
            "buffer" : 0,
            "byteLength" : 432,
            "byteOffset" : 720,
            "target" : 34962
        },
        {
            "buffer" : 0,
            "byteLength" : 300,
            "byteOffset" : 1152,
            "target" : 34963
        },
        {
            "buffer" : 0,
            "byteLength" : 2412,
            "byteOffset" : 1452,
            "target" : 34962
        },
        {
            "buffer" : 0,
            "byteLength" : 1608,
            "byteOffset" : 3864,
            "target" : 34962
        },
        {
            "buffer" : 0,
            "byteLength" : 2412,
            "byteOffset" : 5472,
            "target" : 34962
        },
        {
            "buffer" : 0,
            "byteLength" : 1848,
            "byteOffset" : 7884,
            "target" : 34963
        },
        {
            "buffer" : 0,
            "byteLength" : 864,
            "byteOffset" : 9732,
            "target" : 34962
        },
        {
            "buffer" : 0,
            "byteLength" : 576,
            "byteOffset" : 10596,
            "target" : 34962
        },
        {
            "buffer" : 0,
            "byteLength" : 864,
            "byteOffset" : 11172,
            "target" : 34962
        },
        {
            "buffer" : 0,
            "byteLength" : 672,
            "byteOffset" : 12036,
            "target" : 34963
        }
    ],
    "buffers" : [
        {
            "byteLength" : 12708,
            "uri" : "data:application/octet-stream;base64,"
        }
    ]
}
